HIERARCHY
ROOT Hips
{
	OFFSET 0.000000 0.000000 0.000000
	CHANNELS 6 Xposition Yposition Zposition Xrotation Yrotation Zrotation
	JOINT LeftUpLeg_virtual
	{
		OFFSET 0.000000 0.000000 0.000000
		CHANNELS 3 Xrotation Yrotation Zrotation
		JOINT LeftUpLeg
		{
			OFFSET 11.394100 -6.187798 -0.413800
			CHANNELS 3 Xrotation Yrotation Zrotation
			JOINT LeftLeg
			{
				OFFSET 0.430247 -32.302673 3.732800
				CHANNELS 3 Xrotation Yrotation Zrotation
				JOINT LeftFoot
				{
					OFFSET -0.430247 -48.264931 -6.423300
					CHANNELS 3 Xrotation Yrotation Zrotation
					JOINT LeftToeBase
					{
						OFFSET 4.230900 -16.068199 23.438400
						CHANNELS 3 Xrotation Yrotation Zrotation
						JOINT LeftToe_End
						{
							OFFSET 4.510700 0.695400 19.974600
							CHANNELS 3 Xrotation Yrotation Zrotation
							End Site
							{
								OFFSET 0 0 0
							}
						}
					}
				}
			}
		}
	}
	JOINT RightUpLeg_virtual
	{
		OFFSET 0.000000 0.000000 0.000000
		CHANNELS 3 Xrotation Yrotation Zrotation
		JOINT RightUpLeg
		{
			OFFSET -11.333700 -6.187798 -0.413800
			CHANNELS 3 Xrotation Yrotation Zrotation
			JOINT RightLeg
			{
				OFFSET -0.430392 -32.302628 3.733000
				CHANNELS 3 Xrotation Yrotation Zrotation
				JOINT RightFoot
				{
					OFFSET 0.430392 -48.264973 -6.423500
					CHANNELS 3 Xrotation Yrotation Zrotation
					JOINT RightToeBase
					{
						OFFSET -4.230900 -16.068199 23.438400
						CHANNELS 3 Xrotation Yrotation Zrotation
						JOINT RightToe_End
						{
							OFFSET -4.510700 0.695400 19.974600
							CHANNELS 3 Xrotation Yrotation Zrotation
							End Site
							{
								OFFSET 0 0 0
							}
						}
					}
				}
			}
		}
	}
	JOINT Spine_virtual
	{
		OFFSET 0.000000 0.000000 0.000000
		CHANNELS 3 Xrotation Yrotation Zrotation
		JOINT Spine
		{
			OFFSET -0.002400 12.777504 0.315300
			CHANNELS 3 Xrotation Yrotation Zrotation
			JOINT Spine1
			{
				OFFSET -0.002067 5.816869 0.032633
				CHANNELS 3 Xrotation Yrotation Zrotation
				JOINT Spine1_split
				{
					OFFSET -0.002067 5.816869 0.032633
					CHANNELS 3 Xrotation Yrotation Zrotation
					JOINT Spine2
					{
						OFFSET -0.002067 5.816869 0.032633
						CHANNELS 3 Xrotation Yrotation Zrotation
						JOINT Neck_virtual
						{
							OFFSET 0.000000 0.000000 0.000000
							CHANNELS 3 Xrotation Yrotation Zrotation
							JOINT Neck
							{
								OFFSET -0.003700 21.199493 -0.826900
								CHANNELS 3 Xrotation Yrotation Zrotation
								JOINT Head
								{
									OFFSET 0.000000 20.442200 4.834800
									CHANNELS 3 Xrotation Yrotation Zrotation
									JOINT HeadTop_End
									{
										OFFSET 0.000000 34.668396 4.968400
										CHANNELS 3 Xrotation Yrotation Zrotation
										End Site
										{
											OFFSET 0 0 0
										}
									}
								}
							}
						}
						JOINT LeftShoulder_virtual
						{
							OFFSET 0.000000 0.000000 0.000000
							CHANNELS 3 Xrotation Yrotation Zrotation
							JOINT LeftShoulder
							{
								OFFSET 3.288150 8.794197 -1.372250
								CHANNELS 3 Xrotation Yrotation Zrotation
								JOINT LeftShoulder_split
								{
									OFFSET 3.288150 8.794197 -1.372250
									CHANNELS 3 Xrotation Yrotation Zrotation
									JOINT LeftArm
									{
										OFFSET 11.953299 -2.279007 -0.146200
										CHANNELS 3 Xrotation Yrotation Zrotation
										JOINT LeftForeArm
										{
											OFFSET 18.448900 0.000000 0.000000
											CHANNELS 3 Xrotation Yrotation Zrotation
											JOINT LeftHand
											{
												OFFSET 29.527798 0.000000 0.000000
												CHANNELS 3 Xrotation Yrotation Zrotation
												End Site
												{
													OFFSET 0 0 0
												}
											}
										}
									}
								}
							}
						}
						JOINT RightShoulder_virtual
						{
							OFFSET 0.000000 0.000000 0.000000
							CHANNELS 3 Xrotation Yrotation Zrotation
							JOINT RightShoulder
							{
								OFFSET -3.249400 8.794197 -1.372250
								CHANNELS 3 Xrotation Yrotation Zrotation
								JOINT RightShoulder_split
								{
									OFFSET -3.249400 8.794197 -1.372250
									CHANNELS 3 Xrotation Yrotation Zrotation
									JOINT RightArm
									{
										OFFSET -11.953299 -2.279007 -0.146200
										CHANNELS 3 Xrotation Yrotation Zrotation
										JOINT RightForeArm
										{
											OFFSET -18.448900 0.000000 0.000000
											CHANNELS 3 Xrotation Yrotation Zrotation
											JOINT RightHand
											{
												OFFSET -29.527802 0.000000 0.000000
												CHANNELS 3 Xrotation Yrotation Zrotation
												End Site
												{
													OFFSET 0 0 0
												}
											}
										}
									}
								}
							}
						}
					}
				}
			}
		}
	}
}
MOTION
Frames: 8
Frame Time: 0.03333333
8.637406 98.213089 13.609783 0.000000 0.000000 0.000000 -0.884574 9.146276 -4.877238 1.168912 9.202750 9.888739 16.209533 -5.190500 -0.243350 -18.738868 2.386577 -0.337882 -1.606376 -0.889228 -1.378799 0.000000 0.000000 0.000000 -0.198425 7.343844 -5.183992 -33.966927 -6.991493 -2.824617 30.681445 -1.061488 -0.207754 1.363593 3.262292 5.753603 2.865130 0.945221 0.093775 0.000000 0.000000 0.000000 -0.221386 7.606345 -5.062188 11.760322 -1.574049 3.086307 0.804372 -1.737563 0.900412 0.803950 -0.988322 0.498269 0.000000 0.000000 0.000000 -2.942669 -1.420482 1.036339 -0.857659 -0.193195 5.308376 -3.888105 0.020855 -4.593036 0.000000 0.000000 0.000000 -3.136057 -1.597986 1.009156 0.828064 -0.970767 -3.046515 -1.402048 -0.569147 -0.128887 -0.933130 -10.399981 -74.761475 10.351214 -12.855850 -3.308124 0.000000 0.000000 0.000000 -3.226198 -1.910954 0.954148 2.492841 -0.419393 8.173684 -2.563676 1.072800 -1.748601 2.130500 10.907898 71.241229 11.181804 19.294782 3.139525 0.000000 0.000000 0.000000 
8.766125 98.548981 15.424679 0.000000 0.000000 0.000000 -0.457915 9.825476 -5.398574 2.657643 8.927821 9.770036 15.095927 -5.589995 0.018623 -18.714467 2.760540 -0.952523 -2.691633 -0.977945 -1.641558 0.000000 0.000000 0.000000 0.278008 7.869712 -5.741442 -33.678474 -6.509983 -1.488761 25.274529 0.501072 -0.540940 1.065222 3.644341 6.210484 4.751883 -0.309785 -0.216976 0.000000 0.000000 0.000000 0.255340 7.980986 -5.506069 11.712294 -1.724163 3.518767 0.535881 -1.918331 1.005772 0.755979 -0.898340 0.475413 0.000000 0.000000 0.000000 -3.102288 -1.561402 1.145140 -1.049692 -0.336560 5.121537 -4.133460 -0.162214 -5.275624 0.000000 0.000000 0.000000 -3.328784 -1.714272 1.010248 0.837864 -1.074224 -2.993537 -1.340462 -0.316396 0.002749 -1.292602 -10.901919 -74.663400 10.549288 -13.386826 -3.682963 0.000000 0.000000 0.000000 -3.282155 -1.983845 1.065987 2.601168 -1.127396 8.140347 -2.618982 0.861845 -2.004362 2.197815 11.375934 71.165005 10.866189 18.773212 4.020376 0.000000 0.000000 0.000000 
8.869113 98.813530 17.420479 0.000000 0.000000 0.000000 -0.115440 10.381921 -5.842960 4.095761 8.268034 9.910888 14.269832 -5.794449 0.290011 -18.334777 3.576666 -1.517563 -3.317625 -1.000394 -2.270449 0.000000 0.000000 0.000000 0.572404 8.651631 -6.255393 -33.604749 -5.848851 -0.670192 21.077030 2.135713 -0.716467 1.449891 4.113657 6.305999 5.215451 -1.632819 -0.478424 0.000000 0.000000 0.000000 0.637721 8.316807 -5.915412 11.911572 -2.002326 3.807658 0.244093 -2.183990 1.241855 0.538511 -0.637160 0.450911 0.000000 0.000000 0.000000 -3.293359 -1.806274 1.386455 -1.424157 -0.455103 4.760997 -4.483674 -0.469217 -5.855798 0.000000 0.000000 0.000000 -3.568595 -1.920751 1.153560 0.833729 -1.247068 -3.223201 -1.352443 0.084086 -0.019044 -1.358797 -11.532776 -74.362141 10.662784 -13.761910 -4.104034 0.000000 0.000000 0.000000 -3.422319 -2.161246 1.287563 2.679474 -1.746520 7.903239 -2.614440 0.807435 -2.195768 2.408961 11.975625 71.394868 10.467531 18.643469 4.637395 0.000000 0.000000 0.000000 
8.910262 98.854080 19.508831 0.000000 0.000000 0.000000 0.019917 10.820031 -6.211844 5.670277 7.526866 10.362577 13.624284 -5.717731 0.562712 -18.245215 4.724469 -2.015283 -3.211166 -0.988784 -2.975845 0.000000 0.000000 0.000000 0.688757 9.565387 -6.683756 -33.890743 -5.224522 -0.399919 18.187388 3.424720 -0.732144 2.005581 4.402725 5.566533 5.507052 -2.808880 -0.633731 0.000000 0.000000 0.000000 0.864775 8.509345 -6.274501 12.315312 -2.317505 3.956729 -0.051590 -2.488448 1.540375 0.416415 -0.213514 0.377762 0.000000 0.000000 0.000000 -3.473014 -2.110830 1.678496 -2.001603 -0.583488 4.362877 -4.949684 -0.871157 -6.295589 0.000000 0.000000 0.000000 -3.818469 -2.182219 1.383357 0.815573 -1.425987 -3.651282 -1.417061 0.431549 -0.044978 -1.228446 -12.289964 -73.905741 10.689115 -14.182490 -4.515078 0.000000 0.000000 0.000000 -3.602155 -2.411902 1.544918 2.709528 -2.271346 7.541618 -2.547352 0.871243 -2.233588 2.717505 12.611374 71.870946 9.992268 18.843080 5.040431 0.000000 0.000000 0.000000 
8.844185 98.560158 21.867783 0.000000 0.000000 0.000000 -0.019294 11.312452 -6.484119 7.262091 7.120812 11.083700 12.947085 -5.412335 0.773162 -18.890693 5.824489 -2.731344 -3.133041 -1.093876 -3.076648 0.000000 0.000000 0.000000 0.728965 10.410695 -6.994584 -34.488661 -4.823657 -0.566652 16.895641 4.188304 -0.613835 2.748125 4.388900 4.073479 5.992399 -3.598031 -0.717922 0.000000 0.000000 0.000000 0.884124 8.581488 -6.493757 12.855952 -2.588867 4.011131 -0.334744 -2.767229 1.817512 0.359603 0.446411 0.219955 0.000000 0.000000 0.000000 -3.626052 -2.407942 1.927368 -2.735739 -0.718754 4.057341 -5.470273 -1.299779 -6.591779 0.000000 0.000000 0.000000 -4.037033 -2.430971 1.609975 0.793552 -1.528872 -4.176028 -1.490273 0.456043 -0.054529 -1.038803 -13.082845 -73.392158 10.653152 -14.807469 -4.865934 0.000000 0.000000 0.000000 -3.763362 -2.657153 1.749736 2.709327 -2.718908 7.174449 -2.410360 1.031766 -2.083127 2.989808 13.123852 72.462433 9.468343 19.224923 5.306983 0.000000 0.000000 0.000000 
8.583031 97.967026 24.434357 0.000000 0.000000 0.000000 -0.099352 11.917984 -6.598074 8.684886 7.165464 11.903318 12.529378 -5.118551 0.912233 -19.681400 6.441093 -4.189568 -4.486353 -1.412870 -1.974247 0.000000 0.000000 0.000000 0.735155 11.332934 -7.136644 -35.273781 -4.721580 -0.996226 17.049827 4.416858 -0.395312 4.081211 4.089475 2.273357 6.172585 -3.894130 -0.840708 0.000000 0.000000 0.000000 0.748196 8.714126 -6.530263 13.423308 -2.750274 4.000618 -0.601650 -2.974110 1.997754 0.457678 1.027096 0.089828 0.000000 0.000000 0.000000 -3.755240 -2.628504 2.056864 -3.526924 -0.875653 3.907086 -5.999516 -1.685863 -6.729321 0.000000 0.000000 0.000000 -4.226609 -2.600942 1.768691 0.773801 -1.461437 -4.669449 -1.565214 0.119632 0.021729 -0.928792 -13.736676 -72.929529 10.599661 -15.695351 -5.117119 0.000000 0.000000 0.000000 -3.884710 -2.840349 1.827973 2.694159 -3.073948 6.881428 -2.275677 1.145022 -1.747342 3.077001 13.476767 73.062096 8.920816 19.615339 5.493212 0.000000 0.000000 0.000000 
8.116043 97.209328 27.197422 0.000000 0.000000 0.000000 -0.275767 12.724826 -6.512521 9.456608 7.606707 12.828115 13.147067 -5.419639 1.035069 -19.333965 6.459028 -7.143312 -7.495806 -1.988395 0.400428 0.000000 0.000000 0.000000 0.847000 12.247245 -7.074742 -36.260685 -4.906098 -1.456515 18.201786 4.406305 -0.092771 6.118654 3.612966 0.767203 5.880422 -3.745517 -1.016664 0.000000 0.000000 0.000000 0.445984 9.120843 -6.372070 13.942853 -2.790572 3.957333 -0.871532 -3.083856 2.033747 0.745944 1.414159 0.071765 0.000000 0.000000 0.000000 -3.880155 -2.740980 2.049115 -4.303734 -1.056430 3.930694 -6.456715 -1.969233 -6.757735 0.000000 0.000000 0.000000 -4.417535 -2.661700 1.809873 0.776275 -1.215461 -5.037564 -1.566059 -0.466442 0.329178 -0.988054 -14.026658 -72.631385 10.526175 -16.698025 -5.277908 0.000000 0.000000 0.000000 -3.937295 -2.930197 1.759189 2.706905 -3.342172 6.708830 -2.182515 1.142305 -1.273309 2.872393 13.633800 73.548816 8.384458 19.993497 5.629633 0.000000 0.000000 0.000000 
7.418106 96.440842 30.291622 0.000000 0.000000 0.000000 -0.359663 13.635226 -6.270223 9.633946 8.346684 13.497097 14.880102 -5.467720 1.170892 -18.410416 6.183133 -10.034484 -10.796479 -2.868591 3.052070 0.000000 0.000000 0.000000 0.993293 13.189474 -6.898296 -37.125985 -5.299905 -1.684875 19.956576 4.338032 0.245342 8.539850 3.113363 -0.306129 5.201871 -3.219717 -1.156941 0.000000 0.000000 0.000000 0.040266 9.852620 -6.080701 14.322470 -2.733675 3.959975 -1.153990 -3.117303 1.930515 0.923799 1.446551 0.212446 0.000000 0.000000 0.000000 -4.040746 -2.761032 1.935008 -4.976295 -1.200234 4.085632 -6.762086 -2.030801 -6.717445 0.000000 0.000000 0.000000 -4.616812 -2.617349 1.734089 0.810313 -0.780809 -5.197339 -1.500344 -1.053658 0.672672 -1.177578 -13.842322 -72.586189 10.432882 -17.574872 -5.379467 0.000000 0.000000 0.000000 -3.951197 -2.936040 1.556673 2.762803 -3.519030 6.655618 -2.129259 1.050302 -0.762258 2.406839 13.720225 73.805767 7.889020 20.424957 5.742435 0.000000 0.000000 0.000000 
